<svg height="511pt" viewBox="-25 0 511 511.93367" width="511pt" xmlns="http://www.w3.org/2000/svg"><path d="m362.621094 183.800781-15.359375 18.09375-30.039063 35.410157-.082031.085937-121.515625-.253906-61.953125-.171875-34.558594-53.164063c5.949219-9.734375 13.34375-18.511719 21.929688-26.023437 26.007812-21.894532 58.257812-35.03125 92.160156-37.546875 1.621094-.171875 3.328125-.34375 5.035156-.429688 4.179688-.253906 8.363281-.425781 12.628907-.425781 14.894531-.015625 29.734374 1.761719 44.203124 5.292969 14.203126 3.40625 27.890626 8.683593 40.703126 15.699219 19.152343 10.121093 35.308593 25.101562 46.847656 43.433593zm0 0" fill="#707070"/><path d="m367.398438 237.390625-50.175782-.085937-121.597656-.167969-61.953125-.171875-34.558594-53.164063c5.949219-9.734375 13.34375-18.511719 21.929688-26.023437 26.007812-21.894532 58.257812-35.03125 92.160156-37.546875 1.621094-.171875 3.328125-.34375 5.035156-.429688 10.53125.722657 20.980469 2.347657 31.230469 4.867188 14.203125 3.40625 27.894531 8.683593 40.703125 15.699219 19.15625 10.121093 35.3125 25.101562 46.851563 43.433593l10.238281 18.09375zm0 0" fill="#9e9e9e"/><path d="m427.132812 375.375c.207032 17.691406-4.109374 35.136719-12.542968 50.6875l-82.003906 62.125c-32.863282 10.527344-67.214844 15.65625-101.71875 15.1875-4.351563 0-8.617188-.085938-12.886719-.253906-23.859375-.597656-47.578125-3.800782-70.742188-9.558594-4.519531-1.195312-9.042969-2.476562-13.308593-3.839844-1.621094-.511718-3.246094-1.023437-4.78125-1.535156l-82.003907-62.125c-4.433593-8.03125-7.707031-16.648438-9.726562-25.597656-1.914063-8.226563-2.855469-16.644532-2.816407-25.089844 0-3.328125.167969-6.742188.425782-10.070312 2.53125-25.761719 11.191406-50.542969 25.257812-72.277344-13.398437-40.957032-25.429687-104.105469-8.875-119.039063 2.351563-2.273437 5.519532-3.5 8.789063-3.414062 19.714843 0 53.761719 20.480469 78.933593 37.632812 3.328126 2.304688 6.570313 4.523438 9.558594 6.65625 21.746094-10.363281 45.253906-16.53125 69.289063-18.175781 4.269531-.339844 8.535156-.511719 12.886719-.511719 3.5 0 6.996093.085938 10.496093.339844 19.113281 1.0625 37.957031 5.003906 55.894531 11.691406 5.460938 2.046875 10.75 4.265625 15.957032 6.742188 7.847656-5.546875 17.152344-11.945313 26.878906-18.089844 14.097656-9.234375 29.144531-16.929687 44.886719-22.957031 5.398437-1.960938 11.066406-3.085938 16.808593-3.328125 28.757813 0 15.105469 76.117187-.171874 122.796875 15.957031 24.433594 24.792968 52.832031 25.515624 82.003906zm0 0" fill="#cfd8dc"/><path d="m401.535156 375.375c.207032 17.691406-4.113281 35.136719-12.546875 50.6875l-82.003906 62.125c-28.78125 9.289062-58.765625 14.320312-89.003906 14.933594-23.859375-.597656-47.578125-3.800782-70.742188-9.558594-4.519531-1.195312-9.042969-2.476562-13.308593-3.839844-1.621094-.511718-3.246094-1.023437-4.78125-1.535156l-82.003907-62.125c-4.433593-8.03125-7.707031-16.648438-9.726562-25.597656-1.914063-8.226563-2.855469-16.644532-2.816407-25.089844 0-3.328125.167969-6.742188.425782-10.070312 2.53125-25.761719 11.191406-50.542969 25.257812-72.277344-13.398437-40.957032-25.429687-104.105469-8.875-119.039063 25.519532 10.554688 49.601563 24.289063 71.679688 40.875 5.207031-2.472656 10.582031-4.691406 16.042968-6.65625 21.152344-7.921875 43.546876-11.996093 66.132813-12.03125 3.5 0 7 .085938 10.496094.339844.742187.015625 1.484375.074219 2.21875.171875 24.152343 1.671875 47.769531 7.867188 69.632812 18.261719 2.988281-2.132813 6.230469-4.351563 9.644531-6.742188 5.460938 2.046875 10.75 4.265625 15.957032 6.742188 7.847656-5.546875 17.152344-11.945313 26.878906-18.089844 14.097656-9.234375 29.144531-16.929687 44.886719-22.957031 16.554687 15.105468 4.4375 78.59375-8.960938 119.46875 15.953125 24.433594 24.789063 52.832031 25.515625 82.003906zm0 0" fill="#f5f5f5"/><path d="m131.710938 223.910156c-22.726563 13.347656-42.753907 30.828125-59.050782 51.539063-12.289062-42.664063-14.507812-77.90625-10.410156-87.636719 6.996094.769531 26.28125 6.230469 69.460938 36.097656zm0 0" fill="#ef314c"/><g fill="#37474f"><path d="m147.15625 450.128906c.035156 14.289063-4.609375 28.195313-13.226562 39.59375-1.621094-.511718-3.246094-1.023437-4.78125-1.535156l-82.003907-62.125c-4.433593-8.03125-7.707031-16.648438-9.726562-25.597656 11.964843-10.703125 27.464843-16.597656 43.519531-16.554688 36.554688.035156 66.183594 29.660156 66.21875 66.21875zm0 0"/><path d="m213.800781 127.910156c.007813 22.230469-14.335937 41.921875-35.496093 48.734375-21.160157 6.8125-44.296876-.8125-57.261719-18.867187 26.007812-21.894532 58.257812-35.03125 92.160156-37.546875.417969 2.535156.617187 5.105469.597656 7.679687zm0 0"/><path d="m316.199219 144.976562c.019531 12.015626-8.320313 22.429688-20.054688 25.03125-11.730469 2.605469-23.695312-3.300781-28.757812-14.199218-5.066407-10.898438-1.871094-23.851563 7.683593-31.140625 14.203126 3.40625 27.890626 8.683593 40.703126 15.699219.269531 1.523437.410156 3.0625.425781 4.609374zm0 0"/></g><path d="m252.796875 120.65625c.484375-13.410156-.894531-26.820312-4.09375-39.851562-2.769531-12.9375 2.140625-26.316407 12.628906-34.390626 14.589844-9.8125 34.304688 1.539063 44.800781 9.21875 7.609376 5.558594 18.289063 3.898438 23.847657-3.714843 5.5625-7.609375 3.898437-18.289063-3.710938-23.847657-42.667969-31.234374-72.875-17.410156-83.96875-10.070312-22.421875 16.023438-32.96875 43.988281-26.707031 70.828125 2.488281 10.125 3.550781 20.550781 3.15625 30.972656zm0 0" fill="#9e9e9e"/><path d="m137 469.242188c0-23.5625-26.742188-51.199219-59.734375-51.199219-32.988281 0-59.730469 27.636719-59.730469 51.199219s26.742188 34.132812 59.730469 34.132812c32.992187 0 59.734375-10.570312 59.734375-34.132812zm0 0" fill="#9e9e9e"/><path d="m444.199219 469.242188c0 23.550781-26.707031 34.132812-59.730469 34.132812-4.277344.023438-8.546875-.175781-12.800781-.597656-26.882813-2.472656-46.933594-13.140625-46.933594-33.535156 0-20.394532 20.050781-43.859376 46.933594-49.835938 4.207031-.890625 8.496093-1.351562 12.800781-1.363281 33.023438 0 59.730469 27.648437 59.730469 51.199219zm0 0" fill="#707070"/><path d="m418.601562 469.242188c0 20.394531-20.054687 31.0625-46.933593 33.535156-26.882813-2.472656-46.933594-13.140625-46.933594-33.535156 0-20.394532 20.050781-43.859376 46.933594-49.835938 26.878906 5.976562 46.933593 29.441406 46.933593 49.835938zm0 0" fill="#9e9e9e"/><path d="m253.898438 374.691406-12.800782 13.65625c-5.730468 5.460938-14.738281 5.460938-20.472656 0l-12.800781-13.65625c-2.183594-2.140625-3.050781-5.289062-2.273438-8.246094 1.644531-4.773437 6.101563-8.003906 11.148438-8.078124.453125-.046876.910156-.066407 1.363281-.058594h25.605469c.453125-.007813.910156.011718 1.363281.058594 5.039062.097656 9.484375 3.320312 11.148438 8.078124.773437 2.957032-.09375 6.105469-2.28125 8.246094zm0 0" fill="#ef314c"/><path d="m350.332031 230.308594c0 32.992187-26.742187 59.734375-59.730469 59.734375-32.992187 0-59.734374-26.742188-59.734374-59.734375-.042969-12.074219 3.621093-23.867188 10.496093-33.792969 24.921875 1.410156 49.328125 7.671875 71.851563 18.433594 7.847656-5.546875 17.152344-11.945313 26.878906-18.089844 6.71875 9.855469 10.289062 21.519531 10.238281 33.449219zm0 0" fill="#37474f"/><path d="m389.246094 275.707031c-16.300782-20.789062-36.363282-38.328125-59.136719-51.710937 6.914063-4.78125 13.226563-8.960938 19.113281-12.714844 30.039063-18.691406 44.460938-22.785156 50.519532-23.46875 4.011718 9.730469 1.875 45.140625-10.496094 87.894531zm0 0" fill="#ef314c"/><path d="m230.867188 511.910156c-35.4375.429688-70.710938-4.851562-104.46875-15.644531-2.886719-.980469-5.027344-3.429687-5.621094-6.417969-.589844-2.992187.457031-6.070312 2.75-8.082031 2.292968-2.007813 5.484375-2.640625 8.371094-1.65625 31.984374 10.191406 65.402343 15.167969 98.96875 14.734375 33.566406.433594 66.984374-4.542969 98.964843-14.734375 2.886719-.984375 6.078125-.351563 8.375 1.65625 2.292969 2.011719 3.339844 5.089844 2.75 8.082031-.59375 2.988282-2.738281 5.4375-5.625 6.417969-33.753906 10.792969-69.027343 16.074219-104.464843 15.644531zm0 0"/><path d="m414.582031 434.597656c-3.015625-.003906-5.804687-1.59375-7.339843-4.191406-1.535157-2.59375-1.585938-5.808594-.132813-8.449219 7.730469-14.296875 11.683594-30.328125 11.492187-46.582031-.6875-27.582031-9.074218-54.417969-24.21875-77.480469-1.34375-2.144531-1.664062-4.777343-.875-7.179687 15.710938-48.019532 21.207032-97.144532 12.25-109.5-.828124-1.386719-2.355468-2.195313-3.96875-2.105469-14.925781 0-45.40625 15.597656-83.625 42.796875-2.519531 1.796875-5.816406 2.085938-8.609374.753906-49.703126-23.800781-107.507813-23.828125-157.234376-.078125-2.78125 1.316407-6.058593 1.03125-8.566406-.753906-52.492187-37.171875-74.886718-42.71875-83.554687-42.71875-1.628907-.09375-3.171875.726563-4.007813 2.125-8.914062 12.296875-3.441406 61.253906 12.199219 109.148437.789063 2.40625.46875 5.035157-.875 7.179688-15.238281 23.148438-23.6875 50.105469-24.382813 77.8125-.191406 16.25 3.761719 32.285156 11.492188 46.578125 2.269531 4.136719.757812 9.324219-3.375 11.59375s-9.320312.757813-11.589844-3.375c-9.117187-16.8125-13.792968-35.671875-13.59375-54.796875.609375-29.566406 9.21875-58.417969 24.910156-83.488281-5.601562-18.195313-27.484374-94.640625-8.601562-120.671875 4.042969-5.839844 10.726562-9.277344 17.824219-9.171875 18.410156 0 48.476562 14.46875 89.402343 43.023437 51.765626-23.164062 110.960938-23.136718 162.707032.078125 40.800781-28.601562 70.890625-43.101562 89.480468-43.101562 7.085938-.105469 13.757813 3.328125 17.785157 9.15625 18.957031 26.148437-3.035157 102.8125-8.652344 121.035156 15.59375 24.976563 24.144531 53.703125 24.746094 83.140625.199219 19.125-4.476563 37.984375-13.59375 54.796875-1.5 2.734375-4.371094 4.429687-7.492188 4.425781zm0 0"/><path d="m99.101562 192.335938c-3.078124-.003907-5.914062-1.660157-7.425781-4.339844-1.511719-2.679688-1.464843-5.96875.125-8.601563 25.125-41.644531 79.707031-68.550781 139.066407-68.550781 59.265624 0 113.851562 26.902344 139.058593 68.535156 2.441407 4.03125 1.152344 9.28125-2.878906 11.722656-4.03125 2.441407-9.28125 1.152344-11.722656-2.878906-22.183594-36.636718-71.03125-60.3125-124.457031-60.3125-53.503907 0-102.359376 23.667969-124.449219 60.300782-1.546875 2.5625-4.324219 4.128906-7.316407 4.125zm0 0"/><path d="m252.808594 129.1875-.332032-.003906c-4.710937-.179688-8.382812-4.144532-8.203124-8.851563.460937-12.621093-.839844-25.242187-3.863282-37.5-3.601562-16.425781 2.730469-33.4375 16.191406-43.511719 13.992188-9.410156 33.375-6.074218 54.566407 9.421876 2.460937 1.800781 5.695312 2.148437 8.484375.914062 2.789062-1.230469 4.707031-3.859375 5.035156-6.890625s-.988281-6.007813-3.449219-7.804687c-36.820312-26.953126-62.304687-17.730469-74.230469-9.84375-19.480468 13.980468-28.613281 38.324218-23.132812 61.667968 2.691406 10.90625 3.835938 22.136719 3.398438 33.363282-.269532 4.671874-4.1875 8.289062-8.867188 8.179687-2.261719-.089844-4.394531-1.078125-5.929688-2.742187-1.53125-1.664063-2.34375-3.871094-2.25-6.132813.367188-9.625-.617187-19.253906-2.925781-28.601563-7.035156-30.308593 4.902344-61.867187 30.230469-79.929687 12.632812-8.359375 46.945312-24.015625 93.777344 10.257813 7.464844 5.367187 11.476562 14.324218 10.515625 23.464843-.964844 9.144531-6.753907 17.066407-15.171875 20.761719-8.417969 3.695312-18.171875 2.589844-25.550782-2.890625-6.976562-5.097656-24.359374-16.195313-35-9.015625-7.511718 6.074219-11.023437 15.824219-9.109374 25.292969 3.390624 13.796875 4.847656 27.992187 4.332031 42.1875-.175781 4.578125-3.933594 8.203125-8.515625 8.207031zm0 0"/><path d="m77.265625 511.910156c-42.105469 0-68.265625-16.351562-68.265625-42.667968 0-27.625 29.816406-59.734376 68.265625-59.734376 38.453125 0 68.269531 32.109376 68.269531 59.734376 0 26.316406-26.160156 42.667968-68.269531 42.667968zm0-85.335937c-27.574219 0-51.199219 23.46875-51.199219 42.667969 0 18.875 26.453125 25.601562 51.199219 25.601562s51.203125-6.726562 51.203125-25.601562c0-19.199219-23.628906-42.667969-51.203125-42.667969zm0 0"/><path d="m384.46875 511.910156c-42.109375 0-68.269531-16.351562-68.269531-42.667968 0-27.625 29.816406-59.734376 68.269531-59.734376 38.449219 0 68.265625 32.109376 68.265625 59.734376 0 26.316406-26.160156 42.667968-68.265625 42.667968zm0-85.335937c-27.578125 0-51.203125 23.464843-51.203125 42.667969 0 18.875 26.453125 25.601562 51.203125 25.601562 24.746094 0 51.199219-6.726562 51.199219-25.601562 0-19.199219-23.625-42.667969-51.199219-42.667969zm0 0"/><path d="m77.265625 511.910156c-14.128906-.015625-25.582031-11.46875-25.597656-25.601562v-17.066406c0-4.710938 3.820312-8.53125 8.53125-8.53125 4.714843 0 8.535156 3.820312 8.535156 8.53125v17.066406c0 4.714844 3.820313 8.535156 8.53125 8.535156 4.714844 0 8.535156-3.820312 8.535156-8.535156v-17.066406c0-4.710938 3.820313-8.53125 8.53125-8.53125 4.714844 0 8.535157 3.820312 8.535157 8.53125v17.066406c-.015626 14.132812-11.46875 25.585937-25.601563 25.601562zm0 0"/><path d="m384.46875 511.910156c-14.132812-.015625-25.585938-11.46875-25.601562-25.601562v-17.066406c0-4.710938 3.820312-8.53125 8.53125-8.53125 4.714843 0 8.535156 3.820312 8.535156 8.53125v17.066406c0 4.714844 3.820312 8.535156 8.535156 8.535156 4.710938 0 8.53125-3.820312 8.53125-8.535156v-17.066406c0-4.710938 3.820312-8.53125 8.535156-8.53125 4.710938 0 8.53125 3.820312 8.53125 8.53125v17.066406c-.015625 14.132812-11.46875 25.585937-25.597656 25.601562zm0 0"/><path d="m230.867188 400.976562c-6.1875.097657-12.140626-2.363281-16.457032-6.796874l-12.792968-13.652344c-4.832032-4.957032-6.199219-12.335938-3.46875-18.695313 3.65625-7.625 11.480468-12.355469 19.925781-12.054687h25.585937c8.445313-.300782 16.269532 4.429687 19.921875 12.050781 2.734375 6.363281 1.363281 13.742187-3.472656 18.699219l-12.777344 13.652344c-4.320312 4.433593-10.273437 6.890624-16.464843 6.796874zm-12.792969-34.132812c-2.90625 0-4.179688 1.414062-4.28125 1.816406l13.074219 13.851563c2.390624 1.726562 5.617187 1.726562 8.007812 0l12.773438-13.652344c.195312-.597656-1.082032-2.015625-3.988282-2.015625zm0 0"/><path d="m205.265625 460.710938c-18.84375-.023438-34.113281-15.292969-34.132813-34.136719v-8.53125c0-4.714844 3.820313-8.535157 8.535157-8.535157 4.710937 0 8.53125 3.820313 8.53125 8.535157v8.53125c0 9.425781 7.640625 17.066406 17.066406 17.066406s17.066406-7.640625 17.066406-17.066406v-34.132813c0-4.710937 3.820313-8.53125 8.535157-8.53125 4.710937 0 8.53125 3.820313 8.53125 8.53125v34.132813c-.019532 18.84375-15.289063 34.113281-34.132813 34.136719zm0 0"/><path d="m256.46875 460.710938c-18.84375-.023438-34.117188-15.292969-34.136719-34.136719v-34.132813c0-4.710937 3.820313-8.53125 8.535157-8.53125 4.710937 0 8.53125 3.820313 8.53125 8.53125v34.132813c0 9.425781 7.644531 17.066406 17.070312 17.066406 9.421875 0 17.066406-7.640625 17.066406-17.066406v-8.53125c0-4.714844 3.820313-8.535157 8.53125-8.535157 4.714844 0 8.535156 3.820313 8.535156 8.535157v8.53125c-.019531 18.84375-15.292968 34.113281-34.132812 34.136719zm0 0"/><path d="m179.660156 341.242188c-4-.007813-7.460937-2.789063-8.328125-6.691407-1.851562-6.734375-6.285156-12.464843-12.339843-15.949219-8.675782-4.582031-20.757813-3.878906-35.949219 2.058594-4.390625 1.714844-9.34375-.453125-11.058594-4.84375-1.71875-4.390625.449219-9.339844 4.839844-11.058594 20.191406-7.871093 37.152343-8.234374 50.425781-1.09375 10.347656 5.878907 17.847656 15.726563 20.757812 27.265626.539063 2.519531-.089843 5.148437-1.710937 7.152343-1.621094 2.003907-4.0625 3.164063-6.636719 3.160157zm0 0"/><path d="m273.542969 341.242188c-2.578125.003906-5.019531-1.15625-6.640625-3.160157-1.621094-2.003906-2.25-4.632812-1.710938-7.152343 2.914063-11.539063 10.410156-21.386719 20.757813-27.265626 13.285156-7.148437 30.242187-6.78125 50.425781 1.09375 4.390625 1.71875 6.558594 6.667969 4.84375 11.058594-1.71875 4.390625-6.667969 6.558594-11.0625 4.84375-15.289062-5.972656-27.441406-6.640625-36.113281-1.964844-5.972657 3.464844-10.339844 9.140626-12.167969 15.796876-.839844 3.933593-4.3125 6.746093-8.332031 6.75zm0 0"/><path d="m102.859375 358.308594c-1.835937.003906-3.625-.59375-5.09375-1.695313-26.601563-16.507812-57.472656-24.820312-88.765625-23.902343-4.710938 0-8.53125-3.824219-8.53125-8.535157 0-4.710937 3.820312-8.535156 8.53125-8.535156 61.867188 0 97.5 26.191406 98.988281 27.308594 2.9375 2.203125 4.136719 6.042969 2.972657 9.527343-1.164063 3.488282-4.429688 5.835938-8.101563 5.832032zm0 0"/><path d="m9.007812 400.976562c-3.761718.003907-7.082031-2.457031-8.171874-6.058593-1.09375-3.597657.300781-7.488281 3.429687-9.574219 27.433594-18.292969 79.335937-18.5 81.535156-18.5 4.710938 0 8.53125 3.820312 8.53125 8.53125 0 4.714844-3.820312 8.535156-8.53125 8.535156-.484375 0-48.941406.214844-72.066406 15.632813-1.398437.933593-3.042969 1.433593-4.726563 1.433593zm0 0"/><path d="m358.882812 358.296875c-3.671874.007813-6.9375-2.335937-8.105468-5.820313-1.164063-3.484374.03125-7.324218 2.96875-9.527343 1.484375-1.117188 37.121094-27.308594 98.988281-27.308594 4.710937 0 8.53125 3.824219 8.53125 8.535156 0 4.710938-3.820313 8.535157-8.53125 8.535157-31.296875-.921876-62.167969 7.394531-88.765625 23.90625-1.472656 1.089843-3.253906 1.679687-5.085938 1.679687zm0 0"/><path d="m452.726562 400.976562c-1.683593 0-3.328124-.5-4.726562-1.433593-23.125-15.417969-71.582031-15.632813-72.066406-15.632813-4.714844 0-8.535156-3.820312-8.535156-8.535156 0-4.710938 3.820312-8.53125 8.535156-8.53125 2.199218 0 54.101562.207031 81.535156 18.5 3.128906 2.085938 4.523438 5.976562 3.429688 9.574219-1.089844 3.601562-4.410157 6.0625-8.171876 6.058593zm0 0"/></svg>